<svg version="1.1" viewBox="0.0 0.0 960.0 720.0" fill="none" stroke="none" stroke-linecap="square" stroke-miterlimit="10" xmlns:xlink="http://www.w3.org/1999/xlink" xmlns="http://www.w3.org/2000/svg"><clipPath id="g7909b9828f_0_0.0"><path d="m0 0l960.0 0l0 720.0l-960.0 0l0 -720.0z" clip-rule="nonzero"/></clipPath><g clip-path="url(#g7909b9828f_0_0.0)"><path fill="#ffffff" d="m0 0l960.0 0l0 720.0l-960.0 0z" fill-rule="evenodd"/><path fill="#002eff" fill-opacity="0.2798" d="m86.26747 116.37787l0 0c0 -48.83589 39.58931 -88.4252 88.4252 -88.4252l0 0c23.451813 0 45.943115 9.3162 62.526047 25.89914c16.582947 16.582943 25.89914 39.074238 25.89914 62.52606l0 0c0 48.83589 -39.589294 88.4252 -88.425186 88.4252l0 0c-48.83589 0 -88.4252 -39.58931 -88.4252 -88.4252z" fill-rule="evenodd"/><path fill="#002eff" fill-opacity="0.2798" d="m63.73301 233.87427l0 0c0 -36.572556 29.647911 -66.220474 66.22047 -66.220474l0 0c17.56276 0 34.406204 6.9767914 46.82495 19.395538c12.418747 12.418747 19.395523 29.262177 19.395523 46.824936l0 0c0 36.57257 -29.647919 66.22049 -66.220474 66.22049l0 0c-36.572556 0 -66.22047 -29.647919 -66.22047 -66.22049z" fill-rule="evenodd"/><path fill="#40ff00" fill-opacity="0.3571" d="m470.32547 408.96194l0 0c0 -52.297455 42.395477 -94.6929 94.6929 -94.6929l0 0c25.114136 0 49.199646 9.976532 66.95801 27.734894c17.758362 17.758362 27.734924 41.843903 27.734924 66.95801l0 0c0 52.297455 -42.395447 94.6929 -94.69293 94.6929l0 0c-52.297424 0 -94.6929 -42.395447 -94.6929 -94.6929z" fill-rule="evenodd"/><path fill="#002eff" fill-opacity="0.2798" d="m746.98926 176.19414l0 0c0 -50.314445 40.787903 -91.10236 91.102356 -91.10236l0 0c24.161865 0 47.334106 9.598259 64.41907 26.683266c17.085022 17.085007 26.683289 40.257248 26.683289 64.4191l0 0c0 50.314438 -40.787903 91.10237 -91.102356 91.10237l0 0c-50.314453 0 -91.102356 -40.787933 -91.102356 -91.10237z" fill-rule="evenodd"/><path fill="#ff0000" fill-opacity="0.375" d="m210.12329 466.12857l0 0c0 -36.57254 29.647919 -66.22046 66.22046 -66.22046l0 0c17.562775 0 34.40622 6.976776 46.82495 19.395538c12.418762 12.418732 19.395538 29.262177 19.395538 46.82492l0 0c0 36.57257 -29.647919 66.22049 -66.22049 66.22049l0 0c-36.57254 0 -66.22046 -29.647919 -66.22046 -66.22049z" fill-rule="evenodd"/><path fill="#40ff00" fill-opacity="0.3571" d="m345.0616 374.77164l0 0c0 -36.57257 29.647919 -66.22049 66.22046 -66.22049l0 0c17.562775 0 34.40619 6.976776 46.82495 19.395538c12.418762 12.418732 19.395538 29.262177 19.395538 46.82495l0 0c0 36.57254 -29.647919 66.22046 -66.22049 66.22046l0 0c-36.57254 0 -66.22046 -29.647919 -66.22046 -66.22046z" fill-rule="evenodd"/><path fill="#ff0000" fill-opacity="0.375" d="m170.7427 271.0236l0 0c0 -36.572556 29.647919 -66.22046 66.220474 -66.22046l0 0c17.56276 0 34.406204 6.976776 46.824936 19.395523c12.418762 12.418747 19.395538 29.262177 19.395538 46.824936l0 0c0 36.57257 -29.647919 66.22049 -66.220474 66.22049l0 0c-36.572556 0 -66.220474 -29.647919 -66.220474 -66.22049z" fill-rule="evenodd"/><path fill="#40ff00" fill-opacity="0.3571" d="m393.857 250.47246l0 0c0 -52.297455 42.395447 -94.69292 94.6929 -94.69292l0 0c25.114105 0 49.199615 9.976547 66.95798 27.73491c17.758362 17.758362 27.734924 41.843872 27.734924 66.95801l0 0c0 52.29744 -42.395447 94.69292 -94.6929 94.69292l0 0c-52.297455 0 -94.6929 -42.395477 -94.6929 -94.69292z" fill-rule="evenodd"/><path fill="#ff0000" fill-opacity="0.375" d="m292.29126 519.748l0 0c0 -36.57254 29.647919 -66.22046 66.22049 -66.22046l0 0c17.562744 0 34.40619 6.976776 46.82492 19.395538c12.418762 12.418732 19.395538 29.262177 19.395538 46.82492l0 0c0 36.57257 -29.647919 66.22052 -66.22046 66.22052l0 0c-36.57257 0 -66.22049 -29.64795 -66.22049 -66.22052z" fill-rule="evenodd"/><path fill="#002eff" fill-opacity="0.2798" d="m13.790126 589.51447l0 0c0 -31.571533 25.5938 -57.165344 57.165356 -57.165344l0 0c15.161194 0 29.701424 6.022766 40.422005 16.743347c10.720589 10.720581 16.743347 25.260803 16.743347 40.421997l0 0c0 31.571533 -25.593803 57.165344 -57.16535 57.165344l0 0c-31.571556 0 -57.165356 -25.593811 -57.165356 -57.165344z" fill-rule="evenodd"/><path fill="#002eff" fill-opacity="0.2798" d="m128.1207 629.23883l0 0c0 -45.843994 37.163895 -83.00787 83.00787 -83.00787l0 0c22.01506 0 43.128433 8.745422 58.695435 24.312439c15.566986 15.567017 24.312439 36.68036 24.312439 58.695435l0 0c0 45.843994 -37.16388 83.00787 -83.00787 83.00787l0 0c-45.84398 0 -83.00787 -37.16388 -83.00787 -83.00787z" fill-rule="evenodd"/><path fill="#002eff" fill-opacity="0.2798" d="m754.86884 604.7769l0 0c0 -31.571533 25.593811 -57.165344 57.165405 -57.165344l0 0c15.161194 0 29.701416 6.022766 40.421997 16.743347c10.720581 10.720581 16.743347 25.260803 16.743347 40.421997l0 0c0 31.571594 -25.593811 57.165405 -57.165344 57.165405l0 0c-31.571594 0 -57.165405 -25.593811 -57.165405 -57.165405z" fill-rule="evenodd"/><path fill="#40ff00" fill-opacity="0.3571" d="m309.82422 360.00003l0 0c0 -8.192963 6.6346436 -14.834656 14.818909 -14.834656l0 0c3.9302063 0 7.699463 1.5629272 10.478546 4.3449707c2.7790833 2.7820435 4.340332 6.555298 4.340332 10.489685l0 0c0 8.192932 -6.6346436 14.834656 -14.818878 14.834656l0 0c-8.184265 0 -14.818909 -6.6417236 -14.818909 -14.834656z" fill-rule="evenodd"/><path fill="#40ff00" fill-opacity="0.3571" d="m580.0604 242.55121l0 0c0 -8.192947 6.6346436 -14.8346405 14.818909 -14.8346405l0 0c3.9302368 0 7.699463 1.5629272 10.478577 4.3449554c2.7790527 2.7820435 4.340332 6.555298 4.340332 10.489685l0 0c0 8.192947 -6.6346436 14.834656 -14.818909 14.834656l0 0c-8.184265 0 -14.818909 -6.6417084 -14.818909 -14.834656z" fill-rule="evenodd"/><path fill="#40ff00" fill-opacity="0.3571" d="m470.0355 512.27826l0 0c0 -8.192963 6.634674 -14.834656 14.818909 -14.834656l0 0c3.9302063 0 7.699463 1.5629272 10.478546 4.3449707c2.7790833 2.782013 4.3403625 6.5552673 4.3403625 10.489685l0 0c0 8.192932 -6.6346436 14.834656 -14.818909 14.834656l0 0c-8.184235 0 -14.818909 -6.6417236 -14.818909 -14.834656z" fill-rule="evenodd"/><path fill="#40ff00" fill-opacity="0.3571" d="m504.7586 541.9475l0 0c0 -8.192932 6.6346436 -14.834595 14.818909 -14.834595l0 0c3.9301758 0 7.699463 1.5629272 10.478516 4.3449097c2.7791138 2.7820435 4.340393 6.555298 4.340393 10.489685l0 0c0 8.192993 -6.6346436 14.834656 -14.818909 14.834656l0 0c-8.184265 0 -14.818909 -6.6416626 -14.818909 -14.834656z" fill-rule="evenodd"/><path fill="#40ff00" fill-opacity="0.3571" d="m465.17593 555.9226l0 0c0 -8.192932 6.6346436 -14.834656 14.818878 -14.834656l0 0c3.9302368 0 7.699463 1.5629272 10.478546 4.3449707c2.7790833 2.7820435 4.3403625 6.555298 4.3403625 10.489685l0 0c0 8.192932 -6.6346436 14.834656 -14.818909 14.834656l0 0c-8.184235 0 -14.818878 -6.6417236 -14.818878 -14.834656z" fill-rule="evenodd"/><path fill="#40ff00" fill-opacity="0.3571" d="m599.79535 271.02365l0 0c0 -8.192963 6.6346436 -14.834656 14.818909 -14.834656l0 0c3.9301758 0 7.699463 1.5629272 10.478516 4.3449707c2.7791138 2.7820435 4.340393 6.555298 4.340393 10.489685l0 0c0 8.192932 -6.6346436 14.834656 -14.818909 14.834656l0 0c-8.184265 0 -14.818909 -6.6417236 -14.818909 -14.834656z" fill-rule="evenodd"/><path fill="#002eff" fill-opacity="0.2798" d="m797.2153 582.69293l0 0c0 -8.192932 6.6346436 -14.834656 14.818909 -14.834656l0 0c3.9302368 0 7.699463 1.5629272 10.478577 4.3449707c2.7790527 2.7820435 4.340332 6.555298 4.340332 10.489685l0 0c0 8.192932 -6.6346436 14.834656 -14.818909 14.834656l0 0c-8.184265 0 -14.818909 -6.6417236 -14.818909 -14.834656z" fill-rule="evenodd"/><path fill="#002eff" fill-opacity="0.2798" d="m797.2153 629.2389l0 0c0 -8.192993 6.6346436 -14.834656 14.818909 -14.834656l0 0c3.9302368 0 7.699463 1.5629272 10.478577 4.3449707c2.7790527 2.7820435 4.340332 6.555298 4.340332 10.489685l0 0c0 8.192932 -6.6346436 14.834595 -14.818909 14.834595l0 0c-8.184265 0 -14.818909 -6.6416626 -14.818909 -14.834595z" fill-rule="evenodd"/><path fill="#ff0000" fill-opacity="0.375" d="m599.36993 479.4435l0 0c0 -22.047882 17.852234 -39.921265 39.874023 -39.921265l0 0c10.575256 0 20.717346 4.2059937 28.19519 11.692688c7.477844 7.4866943 11.678833 17.640808 11.678833 28.228577l0 0c0 22.047913 -17.852234 39.921295 -39.874023 39.921295l0 0c-22.02179 0 -39.874023 -17.873383 -39.874023 -39.921295z" fill-rule="evenodd"/><path fill="#002eff" fill-opacity="0.2798" d="m688.15466 95.34902l0 0c0 -16.246742 13.170593 -29.41732 29.417358 -29.41732l0 0c7.801941 0 15.284363 3.0993118 20.801147 8.616127c5.5168457 5.516823 8.61615 12.999229 8.61615 20.801193l0 0c0 16.246735 -13.170593 29.41732 -29.417297 29.41732l0 0c-16.246765 0 -29.417358 -13.170586 -29.417358 -29.41732z" fill-rule="evenodd"/><path fill="#002eff" fill-opacity="0.2798" d="m777.16516 36.514374l0 0c0 -16.246738 13.170593 -29.417322 29.417358 -29.417322l0 0c7.801941 0 15.284363 3.0993161 20.801147 8.616135c5.5168457 5.516819 8.61615 12.999229 8.61615 20.801188l0 0c0 16.246738 -13.170593 29.417328 -29.417297 29.417328l0 0c-16.246765 0 -29.417358 -13.170589 -29.417358 -29.417328z" fill-rule="evenodd"/><path fill="#002eff" fill-opacity="0.2798" d="m880.16254 57.370018l0 0c0 -16.246738 13.170593 -29.417322 29.417358 -29.417322l0 0c7.801941 0 15.284363 3.0993156 20.801147 8.616133c5.5168457 5.516819 8.61615 12.999229 8.61615 20.80119l0 0c0 16.246742 -13.170593 29.41732 -29.417297 29.41732l0 0c-16.246765 0 -29.417358 -13.170578 -29.417358 -29.41732z" fill-rule="evenodd"/><path fill="#002eff" fill-opacity="0.2798" d="m72.7875 440.27826l0 0c0 -31.571564 25.593803 -57.165375 57.16535 -57.165375l0 0c15.161194 0 29.701431 6.022766 40.422012 16.743347c10.720581 10.720581 16.743347 25.260834 16.743347 40.422028l0 0c0 31.571533 -25.593796 57.165344 -57.16536 57.165344l0 0c-31.571548 0 -57.16535 -25.593811 -57.16535 -57.165344z" fill-rule="evenodd"/><path fill="#002eff" fill-opacity="0.2798" d="m780.92664 374.7717l0 0c0 -31.571564 25.59375 -57.165375 57.165344 -57.165375l0 0c15.161194 0 29.701416 6.022766 40.421997 16.743347c10.720581 10.720581 16.743347 25.260834 16.743347 40.422028l0 0c0 31.571533 -25.593811 57.165344 -57.165344 57.165344l0 0c-31.571594 0 -57.165344 -25.593811 -57.165344 -57.165344z" fill-rule="evenodd"/><path fill="#002eff" fill-opacity="0.2798" d="m551.1836 629.23883l0 0c0 -26.857544 21.772339 -48.629883 48.629883 -48.629883l0 0c12.897461 0 25.266663 5.123474 34.386597 14.243347c9.119873 9.119873 14.243347 21.489075 14.243347 34.386536l0 0c0 26.857605 -21.772339 48.629944 -48.629944 48.629944l0 0c-26.857544 0 -48.629883 -21.772339 -48.629883 -48.629944z" fill-rule="evenodd"/><path fill="#002eff" fill-opacity="0.2798" d="m363.09433 71.48819l0 0c0 -26.85756 21.77237 -48.629917 48.629944 -48.629917l0 0c12.897461 0 25.266663 5.123495 34.386536 14.243374c9.119873 9.119881 14.243378 21.48909 14.243378 34.386543l0 0c0 26.857567 -21.77237 48.62992 -48.629913 48.62992l0 0c-26.857574 0 -48.629944 -21.772354 -48.629944 -48.62992z" fill-rule="evenodd"/><path fill="#002eff" fill-opacity="0.2798" d="m392.8647 663.0341l0 0c0 -26.857544 21.77237 -48.629944 48.629913 -48.629944l0 0c12.897461 0 25.266663 5.123535 34.386566 14.243408c9.119873 9.119873 14.243347 21.489075 14.243347 34.386536l0 0c0 26.857544 -21.772339 48.629944 -48.629913 48.629944l0 0c-26.857544 0 -48.629913 -21.7724 -48.629913 -48.629944z" fill-rule="evenodd"/><path fill="#002eff" fill-opacity="0.2798" d="m826.8531 440.85043l0 0c0 -31.571564 25.593811 -57.165344 57.165405 -57.165344l0 0c15.161194 0 29.701416 6.0227356 40.421997 16.743317c10.720581 10.720612 16.743347 25.260834 16.743347 40.422028l0 0c0 31.571564 -25.593811 57.165344 -57.165344 57.165344l0 0c-31.571594 0 -57.165405 -25.59378 -57.165405 -57.165344z" fill-rule="evenodd"/><path fill="#40ff00" fill-opacity="0.3571" d="m328.56964 323.38586l0 0c0 -8.192963 6.6346436 -14.834656 14.818878 -14.834656l0 0c3.9302368 0 7.699463 1.5629272 10.478546 4.3449707c2.7790833 2.7820435 4.3403625 6.5552673 4.3403625 10.489685l0 0c0 8.192932 -6.6346436 14.834625 -14.818909 14.834625l0 0c-8.184235 0 -14.818878 -6.641693 -14.818878 -14.834625z" fill-rule="evenodd"/><path fill="#40ff00" fill-opacity="0.3571" d="m286.2153 323.38586l0 0c0 -8.192963 6.6346436 -14.834656 14.818878 -14.834656l0 0c3.9302368 0 7.699463 1.5629272 10.478546 4.3449707c2.7790833 2.7820435 4.3403625 6.5552673 4.3403625 10.489685l0 0c0 8.192932 -6.6346436 14.834625 -14.818909 14.834625l0 0c-8.184235 0 -14.818878 -6.641693 -14.818878 -14.834625z" fill-rule="evenodd"/></g></svg>